<?xml version="1.0" standalone="no"?>
<!DOCTYPE svg PUBLIC "-//W3C//DTD SVG 20010904//EN"
 "http://www.w3.org/TR/2001/REC-SVG-20010904/DTD/svg10.dtd">
<svg version="1.0" xmlns="http://www.w3.org/2000/svg"
 width="100.000000pt" height="100.000000pt" viewBox="0 0 100.000000 100.000000"
 preserveAspectRatio="xMidYMid meet">

<g transform="translate(0.000000,100.000000) scale(0.100000,-0.100000)"
fill="#000000" stroke="none">
<path d="M381 738 c-89 -36 -105 -46 -116 -72 -8 -17 -12 -32 -11 -34 2 -1 29
7 61 18 32 11 62 20 66 20 4 0 -5 -29 -22 -65 -30 -67 -111 -304 -124 -363 -7
-32 -6 -34 16 -27 80 25 126 54 133 81 4 16 36 87 71 159 35 72 66 147 69 168
l5 37 -23 -27 c-12 -16 -30 -39 -39 -53 -9 -13 -17 -20 -17 -14 0 10 45 169
56 198 9 24 -10 20 -125 -26z"/>
</g>
</svg>
